HIERARCHY
ROOT Pelvis
{
	OFFSET 0.000000 0.000000 0.000000
	CHANNELS 6 Xposition Yposition Zposition Zrotation Yrotation Xrotation 
	JOINT Left_hip
	{
		OFFSET 0.067986 -0.089946 -0.007639
		CHANNELS 3 Zrotation Yrotation Xrotation
		JOINT Left_knee
		{
			OFFSET 0.036308 -0.388288 -0.004016
			CHANNELS 3 Zrotation Yrotation Xrotation
			JOINT Left_ankle
			{
				OFFSET -0.012264 -0.413250 -0.042878
				CHANNELS 3 Zrotation Yrotation Xrotation
				JOINT Left_foot
				{
					OFFSET 0.024043 -0.058563 0.118570
					CHANNELS 3 Zrotation Yrotation Xrotation
					End Site
					{
						OFFSET 0.000000 0.000000 0.000000
					}
				}
			}
		}
	}
	JOINT Right_hip
	{
		OFFSET -0.065648 -0.089374 -0.003858
		CHANNELS 3 Zrotation Yrotation Xrotation
		JOINT Right_knee
		{
			OFFSET -0.042132 -0.395021 -0.006361
			CHANNELS 3 Zrotation Yrotation Xrotation
			JOINT Right_ankle
			{
				OFFSET 0.014805 -0.413264 -0.041054
				CHANNELS 3 Zrotation Yrotation Xrotation
				JOINT Right_foot
				{
					OFFSET -0.021758 -0.049013 0.121832
					CHANNELS 3 Zrotation Yrotation Xrotation
					End Site
					{
						OFFSET 0.000000 0.000000 0.000000
					}
				}
			}
		}
	}
	JOINT Spine1
	{
		OFFSET -0.002755 0.104406 -0.022277
		CHANNELS 3 Zrotation Yrotation Xrotation
		JOINT Spine2
		{
			OFFSET 0.004136 0.129393 -0.002186
			CHANNELS 3 Zrotation Yrotation Xrotation
			JOINT Spine3
			{
				OFFSET 0.001906 0.049304 0.025578
				CHANNELS 3 Zrotation Yrotation Xrotation
				JOINT Neck
				{
					OFFSET -0.004620 0.210958 -0.044063
					CHANNELS 3 Zrotation Yrotation Xrotation
					JOINT Head
					{
						OFFSET 0.003833 0.067393 0.052435
						CHANNELS 3 Zrotation Yrotation Xrotation
						End Site
						{
							OFFSET 0.000000 0.000000 0.000000
						}
					}
				}
				JOINT Left_collar
				{
					OFFSET 0.070771 0.116689 -0.037192
					CHANNELS 3 Zrotation Yrotation Xrotation
					JOINT Left_shoulder
					{
						OFFSET 0.080652 0.031596 -0.005617
						CHANNELS 3 Zrotation Yrotation Xrotation
						JOINT Left_elbow
						{
							OFFSET 0.262654 -0.015020 -0.027939
							CHANNELS 3 Zrotation Yrotation Xrotation
							JOINT Left_wrist
							{
								OFFSET 0.250438 0.010062 -0.000990
								CHANNELS 3 Zrotation Yrotation Xrotation
								JOINT Left_palm
								{
									OFFSET 0.081198 -0.010037 -0.013706
									CHANNELS 3 Zrotation Yrotation Xrotation
									End Site
									{
										OFFSET 0.000000 0.000000 0.000000
									}
								}
							}
						}
					}
				}
				JOINT Right_collar
				{
					OFFSET -0.072972 0.115556 -0.040762
					CHANNELS 3 Zrotation Yrotation Xrotation
					JOINT Right_shoulder
					{
						OFFSET -0.082917 0.031841 -0.006673
						CHANNELS 3 Zrotation Yrotation Xrotation
						JOINT Right_elbow
						{
							OFFSET -0.252882 -0.013790 -0.020410
							CHANNELS 3 Zrotation Yrotation Xrotation
							JOINT Right_wrist
							{
								OFFSET -0.255570 0.009163 -0.005138
								CHANNELS 3 Zrotation Yrotation Xrotation
								JOINT Right_palm
								{
									OFFSET -0.080804 -0.007282 -0.010415
									CHANNELS 3 Zrotation Yrotation Xrotation
									End Site
									{
										OFFSET 0.000000 0.000000 0.000000
									}
								}
							}
						}
					}
				}
			}
		}
	}
}
MOTION
Frames: 16
Frame Time: 0.100000
0.416349 -0.033328 0.311271 176.201569 26.395649 -21.528917 -2.970151 2.054811 8.805426 -7.019736 -14.554076 7.554049 -1.327346 10.143055 -12.308182 7.995829 3.467074 -5.741184 -7.896576 -1.922092 -11.837372 5.193755 -0.141347 51.162103 11.875039 -11.949008 -9.275472 -11.949128 8.810994 -4.493853 6.156614 -3.890590 15.085016 10.033420 -0.865606 10.618507 4.931693 -1.265772 2.513144 -2.763391 1.299418 -4.412082 -11.433011 -6.068814 4.463291 -20.678306 2.470475 4.896316 -42.992949 1.842592 18.609700 -50.023468 -73.628529 78.252725 -0.285567 -5.020126 -6.154634 -10.855815 -4.256994 -13.136257 30.406102 7.524729 3.709060 27.070345 6.387226 4.572831 -6.378464 20.785294 -13.665165 -1.248997 -0.391842 9.776528 10.945173 6.284817 -10.464139 
0.390758 -0.040605 0.362649 175.859274 25.819972 -20.352254 -1.829967 3.897441 14.357510 -5.730258 -16.062379 3.306529 -1.853492 9.332426 -14.818492 6.133291 2.339611 -3.395147 -8.364244 -2.370295 -16.888923 5.627648 -2.191482 28.986763 13.737278 -9.018349 -8.445159 -13.356372 8.686292 0.598526 7.439996 -5.181661 15.092313 9.423998 -0.378120 10.522103 5.351291 -1.119252 1.867447 -4.019570 2.230851 -4.010325 -11.185196 -5.154863 3.707243 -20.950209 2.124877 4.668062 -43.081276 1.329639 18.923631 -51.436041 -75.994769 79.979639 0.812243 -6.436424 -5.180975 -11.536181 -4.605385 -12.086494 30.531968 7.538651 4.663492 25.703781 6.324603 3.425753 -5.461881 20.683508 -13.084700 -2.218990 0.753357 9.845206 12.564335 7.101309 -10.706279 
0.367854 -0.043553 0.423846 175.962706 26.512008 -19.076050 -0.755836 4.474053 17.467827 -6.253730 -16.900430 4.643609 -1.652355 8.340487 -18.303552 3.591583 1.763347 -0.811012 -8.582876 -1.422946 -15.573755 6.762495 1.133707 3.815266 15.641584 -5.103262 -5.877473 -13.967208 8.032580 5.061341 8.349209 -5.277300 14.488159 9.300586 -0.878041 11.164164 5.786707 -1.046968 1.451275 -4.923210 2.593965 -3.514060 -10.888789 -4.686839 2.479955 -21.305882 1.928804 4.700025 -43.005747 1.302384 19.276149 -54.440312 -77.683461 83.601215 1.462568 -7.831834 -4.929749 -13.051712 -5.041696 -11.102022 31.056887 7.357253 5.279759 24.119416 6.286601 2.405058 -4.992922 20.403260 -13.106953 -3.729776 1.667992 9.213012 15.408640 8.321058 -11.563992 
0.346887 -0.049930 0.496462 176.790985 30.417370 -19.382756 -0.990419 3.672527 18.321012 -8.303788 -18.229767 14.863730 -0.948240 7.944158 -18.789789 2.558666 2.377319 -3.092879 -9.816645 -1.437803 -15.218880 6.517867 1.041180 8.990931 16.186726 -7.542227 -1.400784 -15.158940 8.724086 2.884431 8.837368 -5.807123 14.173522 9.633502 -1.144806 11.411443 5.435581 -1.539545 1.485360 -5.727604 1.493512 -3.844764 -11.934705 -4.232599 3.173352 -21.693311 1.947564 5.409659 -42.117933 0.567633 18.996691 -59.525975 -76.585295 88.910850 0.179704 -8.100859 -5.110962 -13.616912 -5.407629 -10.833233 31.998829 6.841147 4.947626 23.656227 4.729146 2.547342 -6.009843 20.453259 -15.941186 -3.708960 1.322512 9.262537 16.078440 8.636450 -11.509857 
0.330779 -0.074798 0.566850 177.038921 34.312416 -20.223225 2.727423 3.694814 8.752108 -14.543149 -10.762433 38.654956 -8.584829 4.262997 -2.240822 7.182855 2.606258 -13.737142 -10.129275 -3.092922 -12.349957 7.666563 1.518108 16.681497 11.628030 -7.888735 -4.475917 -15.718599 8.038367 0.135858 9.998936 -5.277560 13.581490 10.150997 -1.941366 11.785540 5.368091 -1.649358 1.491574 -7.302124 0.276605 -3.708556 -11.713540 -3.306894 4.712061 -21.326663 2.295361 5.876110 -44.083116 0.571626 19.197641 -55.845901 -74.883088 85.666742 -0.090131 -6.751746 -7.401596 -14.357613 -5.048040 -10.405331 31.744791 6.631812 5.213075 23.951786 4.857577 1.505807 -6.406075 18.972069 -16.470320 -4.140281 -0.043180 9.738075 15.377221 7.674513 -10.619478 
0.314926 -0.098415 0.626854 177.250387 36.792714 -21.365885 5.227633 2.629991 -2.426505 -13.151663 -2.831083 56.235488 -16.267943 6.702242 15.516381 10.648053 3.134892 -21.326346 -9.805942 -4.503345 -4.526272 8.132058 2.161250 14.929456 5.304984 -7.190033 -7.432484 -10.897725 5.006998 0.877236 10.810862 -3.141702 14.786104 9.948440 -2.422354 11.462858 5.379767 -1.079250 1.252150 -8.693262 -0.837000 -4.138890 -10.296246 -3.171066 4.647813 -21.380194 3.108036 5.526410 -42.981950 1.121616 19.628884 -60.339963 -74.949292 89.646845 -1.276643 -7.508316 -9.706589 -14.166559 -3.889677 -8.957872 32.072007 6.547806 5.603263 23.389035 4.942969 1.434915 -6.994235 21.048216 -16.231723 -4.060021 -0.198884 7.859562 14.022579 6.453254 -9.305443 
0.294853 -0.117812 0.678999 178.533662 37.026191 -20.325394 4.414348 1.001406 -8.670295 -10.454192 1.062070 57.143599 -10.191239 8.641220 5.908425 9.252225 3.278345 -16.882451 -10.031402 -5.654240 1.861690 7.709788 3.609105 10.647328 5.611926 -6.235936 -9.340848 -9.829093 3.686420 1.655485 10.541264 -0.360791 14.923066 9.570003 -2.074340 10.369587 5.245892 0.039360 1.883409 -8.538520 -0.253727 -3.737230 -10.654124 -2.729145 4.748857 -21.099990 3.725781 4.943792 -43.189161 2.545317 19.401387 -61.562142 -75.028440 91.096630 -0.874821 -7.102708 -10.655049 -14.378456 -3.840374 -8.711405 31.548622 7.042630 5.913914 23.056610 6.619112 1.018095 -6.734631 21.213973 -15.835482 -5.027123 0.133104 7.458522 14.716870 6.982200 -10.518782 
0.272184 -0.127562 0.725314 178.996983 37.358095 -19.297004 3.285958 0.064549 -12.366831 -10.477122 1.074070 45.457884 -8.164470 7.736354 -0.307980 9.489903 3.102338 -12.599138 -10.696849 -6.709008 6.882255 7.930751 3.798906 7.452405 6.278999 -5.032761 -11.748897 -8.555836 3.221920 3.122150 10.910504 1.347716 15.091229 9.100205 -1.905572 9.432018 5.028165 0.995405 1.953229 -8.835869 1.540418 -3.641390 -11.933475 -2.469061 5.056605 -21.453712 4.257604 4.130364 -43.142459 4.130367 19.568139 -60.426751 -75.067800 90.166325 -0.762243 -8.085306 -10.313134 -14.110074 -3.530938 -9.272195 31.205177 7.315883 6.001161 22.014150 8.160118 0.773958 -6.661507 23.172458 -14.786383 -4.954213 1.580380 7.077138 14.499644 6.913335 -10.603308 
0.245605 -0.131822 0.766242 178.349979 38.942084 -19.064947 1.660423 0.097870 -13.756577 -10.114648 0.691186 27.522752 -8.076258 6.979420 -2.923237 10.937791 2.838804 -8.995799 -10.931457 -7.641335 11.352863 7.904542 3.058257 5.658611 6.664225 -4.567649 -14.154384 -7.217977 3.251410 4.489183 11.410851 2.188195 15.400107 8.919308 -2.230243 9.009884 5.137312 1.449564 1.924620 -8.793520 2.843909 -3.527642 -12.846324 -2.809332 5.349746 -21.823714 3.951316 3.562945 -43.916316 4.926369 20.001786 -57.408656 -74.954921 87.362973 -0.528574 -9.074753 -9.422974 -13.310971 -3.186633 -10.304252 30.664377 7.777260 5.909860 21.341398 9.405237 0.340727 -6.663313 23.962243 -14.519363 -5.053877 2.998534 6.976901 13.686144 6.501825 -10.578500 
0.212236 -0.132261 0.804554 176.853765 40.078982 -18.942919 -0.313092 0.880043 -13.089382 -7.604540 1.977585 7.605671 -7.816332 9.113891 -3.249781 12.861525 2.085772 -5.794695 -10.214631 -7.780811 13.686272 7.694847 2.060522 6.972625 5.939648 -4.656014 -17.231251 -4.570401 2.774507 5.948493 11.768244 2.447238 15.416827 8.849594 -2.202481 8.932099 5.270614 1.867131 1.882298 -8.716349 4.025976 -3.437856 -13.499353 -3.252465 5.140921 -22.161798 3.687846 3.077111 -43.674869 5.637055 20.712594 -58.211341 -75.244230 88.033130 -0.445922 -9.747415 -8.188923 -12.337634 -2.756261 -11.629076 30.552076 8.083443 6.209362 20.917435 10.049660 0.486815 -6.039357 23.842743 -14.202734 -4.808861 4.012351 6.585688 12.507986 5.817136 -10.938010 
0.169520 -0.131653 0.845574 174.690494 40.460650 -19.967665 -1.216076 1.313510 -12.084402 -6.036080 3.114808 -2.334967 -6.507609 11.038772 -5.769499 13.258116 1.760259 -2.892937 -9.347836 -7.919939 17.024042 7.339419 2.171398 8.626095 5.265034 -4.828468 -19.300831 -2.055040 2.132276 6.432101 11.349473 2.984491 15.566460 9.102595 -2.416155 9.386389 5.575898 2.072808 2.024413 -8.071893 4.840872 -2.980929 -13.709058 -3.603046 4.695139 -22.332812 3.352826 2.870932 -43.148440 5.911255 20.705176 -59.202440 -75.567538 89.259613 -0.058674 -9.634647 -7.144774 -11.563061 -2.572403 -12.289719 30.916478 8.361669 6.408800 21.068970 10.145398 0.722591 -5.641809 22.983177 -13.457030 -4.914943 4.253446 7.053877 11.949903 5.601113 -11.346526 
0.112665 -0.131304 0.890592 172.685142 40.472035 -20.942085 -0.895161 0.107768 -12.916423 -6.390258 2.859634 3.857921 -6.008958 11.826214 -2.953896 13.686199 2.302389 -4.738700 -9.315151 -7.378402 17.966060 7.513240 3.692857 16.101770 4.753914 -5.507320 -19.776072 -1.826238 2.525537 4.239098 10.331239 3.415878 14.740106 9.365837 -2.473447 9.947540 5.329277 1.907295 2.304666 -7.688321 5.450350 -2.912943 -13.780028 -3.013460 5.132631 -22.302345 3.981263 2.943610 -42.173347 5.815788 20.594661 -61.863630 -75.740182 91.697985 -0.147190 -8.524519 -7.431020 -12.057475 -2.679930 -12.471206 31.746373 7.655808 6.359889 21.927580 9.388784 1.823129 -5.655695 22.670979 -13.428224 -4.349875 3.191564 6.997753 12.066397 5.504044 -11.589902 
0.045414 -0.143635 0.929933 171.838264 43.910790 -22.424402 -2.671238 -1.353316 -12.098500 -8.504919 0.733895 13.756635 -2.659957 10.800356 -4.223195 11.774385 3.917811 -7.310572 -12.085796 -7.623763 12.919430 8.181231 3.388792 34.807123 11.813882 -6.978016 -8.078586 -10.393875 6.984748 -4.670588 8.622730 3.016951 14.091935 9.934171 -2.456531 10.505718 4.893477 1.041006 3.044031 -7.723909 5.481491 -3.246309 -13.798154 -1.044325 6.264902 -20.821319 3.423378 3.635264 -43.149460 3.412724 19.737432 -62.119872 -73.975235 91.376609 -0.140517 -6.286818 -7.226642 -14.398981 -4.709172 -13.218629 31.478475 6.272716 5.534012 24.333213 7.269987 2.967272 -6.575029 22.054940 -15.635873 -3.298030 1.326366 10.046500 14.469659 7.136164 -12.947594 
-0.016845 -0.154703 0.963884 171.272251 47.035967 -24.676816 -5.997056 -1.260398 -5.181186 -9.065797 -3.097557 15.099317 2.476189 11.163800 -7.987745 8.094167 5.072398 -7.445035 -12.841533 -6.489055 3.731878 6.962758 4.071222 54.735905 18.621313 -13.437290 10.032836 -18.943791 10.942742 -14.403544 7.265466 0.705295 14.439425 10.349395 -1.203342 10.704232 4.470413 0.175292 3.665644 -7.675184 5.469982 -3.818855 -14.771756 2.781384 7.767569 -20.446930 4.116077 4.436575 -42.432185 1.930680 18.120150 -68.109649 -73.600737 95.937298 0.516807 -5.324751 -7.026480 -15.826941 -7.029693 -14.275974 31.658169 5.242664 4.513382 24.731933 5.861983 5.084559 -6.294697 22.152089 -17.893466 -2.608036 0.291901 13.635881 16.361854 8.507718 -13.895822 
-0.071698 -0.170346 0.994933 167.444305 51.849552 -28.756103 -7.088605 0.212674 3.510488 -8.196031 -9.654135 11.592346 1.842062 10.835070 -9.648826 7.507456 4.716655 -8.075748 -10.848642 -4.524603 -3.326913 6.057802 1.846544 60.238052 15.883414 -14.516834 2.108416 -17.066511 11.780033 -11.803245 7.554390 -2.347696 13.959088 10.732783 -1.119906 10.596070 4.586668 -0.891518 3.608206 -6.532503 6.812362 -2.728567 -15.764534 3.275415 8.640688 -20.779099 3.833007 4.704545 -42.585490 1.246603 18.105571 -64.809338 -73.947448 92.715808 0.277689 -5.137471 -7.138992 -13.689636 -5.903628 -13.550173 31.861132 4.898805 3.895692 25.193195 5.008448 5.680571 -6.596656 21.876333 -17.506528 -1.933850 0.059877 12.290302 13.891767 7.246386 -12.043798 
-0.118900 -0.180892 1.022777 163.337501 56.055082 -32.067483 -6.893122 1.059192 9.947444 -6.828148 -15.121066 8.344391 -0.147596 10.031386 -11.144968 7.199041 3.939068 -7.565258 -8.907809 -2.245949 -9.130336 4.414081 0.416261 48.796448 12.630897 -14.554666 -9.314237 -14.100661 11.174149 -5.147912 8.089316 -4.277958 13.747287 10.507210 -0.721533 10.287773 4.916947 -1.272378 3.338916 -5.932271 7.713970 -2.047537 -15.995204 2.068900 8.527454 -20.705191 3.976421 4.648983 -42.761721 1.086558 18.871071 -67.525049 -75.444316 96.295016 0.071616 -5.902062 -8.192168 -11.283656 -4.292218 -11.477395 31.934121 5.031093 3.867454 25.541435 5.091002 5.601526 -7.096111 21.830708 -16.789777 -1.890338 0.300440 9.618510 11.480475 6.101798 -10.220645 
